<svg id="Layer_1" enable-background="new 0 0 514.679 514.679" height="512" viewBox="0 0 514.679 514.679" width="512" xmlns="http://www.w3.org/2000/svg"><g>
<path d="m84.331 20.034-12.794-18.81c-1.109-1.631-3.52-1.634-4.631 0l-12.794 18.81c4.742-1.631 9.822-2.529 15.11-2.529 5.287.001 10.367.899 15.109 2.529z" fill="#04BAAC"/>
<path d="m69.221 110.694c-5.288 0-10.368-.898-15.11-2.529l12.794 18.81c1.112 1.634 3.522 1.631 4.631 0l12.794-18.81c-4.741 1.631-9.821 2.529-15.109 2.529z" fill="#04BAAC"/>
<path d="m48.747 22.257-22.349-4.254c-1.937-.369-3.644 1.333-3.275 3.275l4.254 22.349c4.555-9.272 12.099-16.816 21.37-21.37z" fill="#04BAAC"/>
<path d="m89.695 105.943 22.349 4.254c1.942.369 3.644-1.337 3.275-3.275l-4.254-22.349c-4.555 9.272-12.099 16.815-21.37 21.37z" fill="#04BAAC"/>
<path d="m25.155 48.99-18.81 12.794c-1.631 1.11-1.634 3.52 0 4.631l18.81 12.794c-1.631-4.742-2.529-9.822-2.529-15.11s.899-10.367 2.529-15.109z" fill="#04BAAC"/>
<path d="m113.287 79.21 18.81-12.794c1.634-1.112 1.631-3.522 0-4.631l-18.81-12.794c1.631 4.742 2.529 9.822 2.529 15.11s-.899 10.367-2.529 15.109z" fill="#04BAAC"/>
<path d="m27.378 84.574-4.254 22.349c-.37 1.942 1.337 3.644 3.275 3.275l22.349-4.254c-9.272-4.556-16.816-12.099-21.37-21.37z" fill="#04BAAC"/>
<path d="m111.064 43.626 4.254-22.349c.369-1.937-1.334-3.645-3.275-3.275l-22.349 4.254c9.272 4.555 16.816 12.099 21.37 21.37z" fill="#04BAAC"/>
<ellipse cx="69.221" cy="64.1" rx="34.594" ry="34.594" transform="matrix(.973 -.23 .23 .973 -12.876 17.619)" fill="#04BAAC"/>
<circle cx="250.293" cy="90.976" r="38.001" fill="#04BAAC"/>
<path d="m402.989 188.288c-5.355-8.593-16.666-11.217-25.26-5.859l-42.55 26.526c-4.418-12.423-8.01-22.654-10.726-30.558-8.506-24.755-22.77-37.307-42.396-37.307h-63.529c-19.625 0-33.889 12.551-42.396 37.306-3.442 10.016-5.962 17.255-9.204 26.376l-37.958-24.267c-8.53-5.456-19.869-2.96-25.324 5.572s-2.96 19.87 5.572 25.325l57.333 36.655c9.886 6.319 23.134 1.85 27.127-9.233 4.311-11.965 9.89-27.661 9.89-27.661l-26.023 136.376c-1.222 6.307 3.639 12.135 10 12.135h13.991v133.004c0 12.152 9.852 22.003 22.003 22.003s22.003-9.851 22.003-22.003v-133.005h9.5v133.004c0 12.152 9.852 22.003 22.003 22.003s22.003-9.851 22.003-22.003v-133.004h13.991c6.382 0 11.222-5.823 10-12.135l-26.041-136.538s7.006 19.739 11.317 31.747c3.977 11.075 17.117 15.497 26.957 9.364l61.857-38.563c8.594-5.358 11.217-16.667 5.86-25.26z" fill="#04BAAC"/>
<path d="m482.29 97.211h-55.784c3.167-3.763 5.624-8.139 7.167-12.929h28.012c3.313 0 6-2.687 6-6s-2.687-6-6-6h-26.165c-.113-21.102-17.225-38.179-38.341-38.231-3.891-17.707-19.663-30.962-38.539-30.962-24.308 0-42.882 21.774-38.941 45.88-12.209-3.902-24.56-.039-32.554 8.253 8.161 8.902 13.15 20.755 13.15 33.755 0 6.063-1.087 9.876-3.072 15.258 3.918 1.731 8.249 2.838 12.808 2.838h172.26c3.313 0 6-2.548 6-5.861s-2.688-6.001-6.001-6.001z" fill="#04BAAC"/>
<path d="m503.558 48.802h-46.526c-3.313 0-6 2.687-6 6s2.687 6 6 6h46.526c3.313 0 6-2.687 6-6s-2.686-6-6-6z" fill="#04BAAC"/>
</g></svg>