<svg height="512" viewBox="0 0 128 128" width="512" xmlns="http://www.w3.org/2000/svg"><g>
<path d="m104.913 103.481c-4.526-8.781-6.919-19.706-6.919-31.581v-29.374a37.777 37.777 0 0 0 -75.553 0v29.374c0 14.93 6.237 27.881 18.036 37.449 7.151 5.809 16.366 10.405 27.386 13.661a5.754 5.754 0 0 0 1.627.236 5.824 5.824 0 0 0 5.444-3.767 2.292 2.292 0 0 1 3.207-1.229l4.454 2.324a5.793 5.793 0 0 0 7.938-2.708l2.606-5.645a2.311 2.311 0 0 1 2.726-1.24l2.247.66a5.736 5.736 0 0 0 6.114-1.883 5.66 5.66 0 0 0 .687-6.277zm-3.385 4.052a2.276 2.276 0 0 1 -2.43.752l-2.248-.659a5.829 5.829 0 0 0 -6.889 3.13l-2.606 5.644a2.292 2.292 0 0 1 -3.141 1.072l-4.454-2.322a5.793 5.793 0 0 0 -8.1 3.1 2.308 2.308 0 0 1 -2.8 1.4c-10.574-3.124-19.379-7.505-26.172-13.022-10.958-8.876-16.747-20.885-16.747-34.728v-29.374a34.277 34.277 0 0 1 68.553 0v29.374c0 12.428 2.527 23.9 7.307 33.18a2.2 2.2 0 0 1 -.273 2.453z"  fill="#04BAAC"/>
<path d="m31.941 71.9a1.75 1.75 0 0 0 -3.5 0 40.152 40.152 0 0 0 12.025 29.381 1.75 1.75 0 0 0 2.476-2.475 36.76 36.76 0 0 1 -11.001-26.906z"  fill="#04BAAC"/>
<path d="m45.778 35.881c-4.345 0-7.75 4.429-7.75 10.083s3.405 10.083 7.75 10.083 7.75-4.429 7.75-10.083-3.404-10.083-7.75-10.083zm0 16.666c-2.3 0-4.25-3.014-4.25-6.583s1.947-6.583 4.25-6.583 4.25 3.015 4.25 6.583-1.946 6.583-4.25 6.583z"  fill="#04BAAC"/>
<path d="m74.581 35.881c-4.346 0-7.75 4.429-7.75 10.083s3.4 10.083 7.75 10.083 7.75-4.429 7.75-10.083-3.404-10.083-7.75-10.083zm0 16.666c-2.3 0-4.25-3.014-4.25-6.583s1.946-6.583 4.25-6.583 4.25 3.015 4.25 6.583-1.946 6.583-4.25 6.583z"  fill="#04BAAC"/>
</g></svg>