<svg width="60" height="60" viewBox="0 0 60 60" fill="none" xmlns="http://www.w3.org/2000/svg">
<path d="M54 8H58C59.1 8 60 8.9 60 10V30H52V10C52 8.9 52.9 8 54 8Z" fill="#5C6373"/>
<path d="M57 5H55V2H45V5H43V1C43 0.4 43.4 0 44 0H56C56.6 0 57 0.4 57 1V5Z" fill="#5C6373"/>
<path d="M8 30H4V40H8" fill="#5C6373"/>
<path d="M42 8V6C42 4.9 42.9 4 44 4C45.1 4 46 4.9 46 6V8" fill="#56BCB2"/>
<path d="M54 8V6C54 4.9 54.9 4 56 4C57.1 4 58 4.9 58 6V8" fill="#56BCB2"/>
<path d="M18 20H50C55.5 20 60 24.5 60 30V40C60 45.5 55.5 50 50 50H18C12.5 50 8 45.5 8 40V30C8 24.5 12.5 20 18 20Z" fill="#56BCB2"/>
<path d="M4 30H0V60H4V30Z" fill="#56BCB2"/>
<path d="M4 55H0V57H4V55Z" fill="#5C6373"/>
<path d="M42 8H46C47.1 8 48 8.9 48 10V20H40V10C40 8.9 40.9 8 42 8Z" fill="#5C6373"/>
<path d="M36 0H32V20H36V0Z" fill="#56BCB2"/>
<path d="M36 0H32V4H36V0Z" fill="#5C6373"/>
<path d="M4 0H0V20H4V0Z" fill="#56BCB2"/>
<path d="M4 0H0V4H4V0Z" fill="#5C6373"/>
<path d="M32 2H4V4H32V2Z" fill="#5C6373"/>
<path d="M32 7H4V9H32V7Z" fill="#5C6373"/>
<path d="M32 12H4V14H32V12Z" fill="#5C6373"/>
<path d="M32 17H4V19H32V17Z" fill="#5C6373"/>
<path d="M33 20H31V50H33V20Z" fill="#5C6373"/>
<path d="M25 20H23V50H25V20Z" fill="#5C6373"/>
<path d="M32 29H24V31H32V29Z" fill="#5C6373"/>
<path d="M32 25H24V27H32V25Z" fill="#5C6373"/>
<path d="M32 33H24V35H32V33Z" fill="#5C6373"/>
<path d="M32 37H24V39H32V37Z" fill="#5C6373"/>
<path d="M32 41H24V43H32V41Z" fill="#5C6373"/>
<path d="M32 45H24V47H32V45Z" fill="#5C6373"/>
<path d="M57 36H55V30C55 27.2 52.8 25 50 25V23C53.9 23 57 26.1 57 30V36Z" fill="#56BCB2"/>
<path d="M21 50H17V56H21V50Z" fill="#5C6373"/>
<path d="M51 50H47V56H51V50Z" fill="#5C6373"/>
<path d="M48 11H40V13H48V11Z" fill="#56BCB2"/>
<path d="M60 11H52V13H60V11Z" fill="#56BCB2"/>
<path d="M4 33H0V35H4V33Z" fill="#5C6373"/>
<path d="M55 56H13V60H55V56Z" fill="#56BCB2"/>
</svg>
