<?xml version="1.0" standalone="no"?>
<!DOCTYPE svg PUBLIC "-//W3C//DTD SVG 20010904//EN"
 "http://www.w3.org/TR/2001/REC-SVG-20010904/DTD/svg10.dtd">
<svg version="1.0" xmlns="http://www.w3.org/2000/svg"
 width="225.000000pt" height="225.000000pt" viewBox="0 0 225.000000 225.000000"
 preserveAspectRatio="xMidYMid meet">
<metadata>
Created by potrace 1.16, written by Peter Selinger 2001-2019
</metadata>
<g transform="translate(0.000000,225.000000) scale(0.100000,-0.100000)"
fill="#04C0B2" stroke="none">
<path d="M543 2093 c-9 -3 -13 -28 -13 -74 l0 -69 -52 0 c-112 0 -178 -66
-178 -178 l0 -52 -69 0 c-61 0 -70 -2 -76 -20 -11 -36 12 -50 81 -50 l64 0 0
-75 0 -75 -64 0 c-69 0 -92 -14 -81 -50 6 -18 15 -20 76 -20 l69 0 0 -80 0
-80 -69 0 c-61 0 -70 -2 -76 -20 -11 -36 12 -50 81 -50 l64 0 0 -75 0 -75 -64
0 c-69 0 -92 -14 -81 -50 6 -18 15 -20 76 -20 l69 0 0 -80 0 -80 -69 0 c-61 0
-70 -2 -76 -20 -11 -36 12 -50 81 -50 l64 0 0 -75 0 -75 -64 0 c-69 0 -92 -14
-81 -50 6 -18 15 -20 76 -20 l69 0 0 -52 c0 -112 66 -178 178 -178 l52 0 0
-69 c0 -61 2 -70 20 -76 36 -11 50 12 50 81 l0 64 75 0 75 0 0 -64 c0 -69 14
-92 50 -81 18 6 20 15 20 76 l0 69 80 0 80 0 0 -69 c0 -61 2 -70 20 -76 36
-11 50 12 50 81 l0 64 75 0 75 0 0 -64 c0 -69 14 -92 50 -81 18 6 20 15 20 76
l0 69 80 0 80 0 0 -69 c0 -61 2 -70 20 -76 36 -11 50 12 50 81 l0 64 75 0 75
0 0 -64 c0 -69 14 -92 50 -81 18 6 20 15 20 76 l0 69 52 0 c112 0 178 66 178
178 l0 52 69 0 c61 0 70 2 76 20 11 36 -12 50 -81 50 l-64 0 0 75 0 75 64 0
c69 0 92 14 81 50 -6 18 -15 20 -76 20 l-69 0 0 80 0 80 69 0 c61 0 70 2 76
20 11 36 -12 50 -81 50 l-64 0 0 75 0 75 64 0 c69 0 92 14 81 50 -6 18 -15 20
-76 20 l-69 0 0 80 0 80 69 0 c61 0 70 2 76 20 11 36 -12 50 -81 50 l-64 0 0
75 0 75 64 0 c69 0 92 14 81 50 -6 18 -15 20 -76 20 l-69 0 0 52 c0 112 -66
178 -178 178 l-52 0 0 69 c0 61 -2 70 -20 76 -36 11 -50 -12 -50 -81 l0 -64
-75 0 -75 0 0 64 c0 69 -14 92 -50 81 -18 -6 -20 -15 -20 -76 l0 -69 -80 0
-80 0 0 69 c0 61 -2 70 -20 76 -36 11 -50 -12 -50 -81 l0 -64 -75 0 -75 0 0
64 c0 69 -14 92 -50 81 -18 -6 -20 -15 -20 -76 l0 -69 -80 0 -80 0 0 69 c0 61
-2 70 -20 76 -36 11 -50 -12 -50 -81 l0 -64 -75 0 -75 0 0 63 c0 76 -15 97
-57 80z m1308 -242 l29 -29 0 -696 0 -695 -24 -28 -24 -28 -707 0 -707 0 -24
28 -24 28 0 695 0 696 29 29 29 29 697 0 697 0 29 -29z"/>
<path d="M535 1708 c-3 -7 -4 -274 -3 -593 l3 -580 590 0 590 0 0 590 0 590
-588 3 c-465 2 -589 0 -592 -10z m1115 -583 l0 -525 -525 0 -525 0 0 525 0
525 525 0 525 0 0 -525z"/>
</g>
</svg>
