<?xml version="1.0"?>
<svg xmlns="http://www.w3.org/2000/svg" width="480" height="480" viewBox="0 0 480 480" fill="none">
<g clip-path="url(#clip0)">
<path d="M239.988 64C244.406 64 247.988 60.418 247.988 56V8C247.988 3.582 244.406 0 239.988 0C235.57 0 231.988 3.582 231.988 8V56C231.988 60.418 235.569 64 239.988 64Z" fill="#04C0B2"/>
<path d="M121.06 41.976L145.06 83.576C147.244 87.417 152.128 88.76 155.969 86.576C159.81 84.392 161.153 79.508 158.969 75.667C158.952 75.636 158.934 75.606 158.916 75.575L134.916 33.975C132.732 30.134 127.848 28.791 124.007 30.975C120.166 33.159 118.823 38.043 121.007 41.884C121.024 41.915 121.042 41.946 121.06 41.976Z" fill="#04C0B2"/>
<path d="M41.996 126.928L83.596 150.928C87.437 153.112 92.321 151.769 94.505 147.928C96.668 144.123 95.372 139.286 91.596 137.072L49.996 113.072C46.155 110.888 41.271 112.231 39.087 116.072C36.923 119.877 38.219 124.714 41.996 126.928Z" fill="#04C0B2"/>
<path d="M71.988 232C71.988 227.582 68.406 224 63.988 224H15.988C11.57 224 7.98801 227.582 7.98801 232C7.98801 236.418 11.57 240 15.988 240H63.988C68.406 240 71.988 236.418 71.988 232Z" fill="#04C0B2"/>
<path d="M83.657 313.018C83.626 313.036 83.595 313.054 83.564 313.072L41.964 337.072C38.123 339.255 36.779 344.139 38.962 347.98C41.145 351.821 46.029 353.165 49.87 350.982C49.901 350.964 49.932 350.946 49.963 350.928L91.563 326.928C95.404 324.745 96.748 319.861 94.565 316.02C92.382 312.179 87.498 310.835 83.657 313.018Z" fill="#04C0B2"/>
<path d="M437.98 337.072L396.38 313.072C392.569 310.837 387.667 312.115 385.432 315.926C383.197 319.737 384.475 324.639 388.286 326.874C388.317 326.892 388.348 326.91 388.379 326.928L429.979 350.928C433.82 353.111 438.704 351.767 440.887 347.926C443.05 344.122 441.755 339.286 437.98 337.072Z" fill="#04C0B2"/>
<path d="M463.988 224H415.988C411.57 224 407.988 227.582 407.988 232C407.988 236.418 411.57 240 415.988 240H463.988C468.406 240 471.988 236.418 471.988 232C471.988 227.582 468.406 224 463.988 224Z" fill="#04C0B2"/>
<path d="M392.42 152C393.824 152 395.204 151.63 396.42 150.928L438.02 126.928C441.832 124.694 443.11 119.792 440.876 115.981C438.662 112.205 433.825 110.909 430.02 113.072L388.42 137.072C384.594 139.281 383.283 144.174 385.492 148C386.921 150.475 389.562 152 392.42 152Z" fill="#04C0B2"/>
<path d="M323.988 86.504C327.814 88.713 332.707 87.402 334.916 83.576L358.916 41.976C361.151 38.165 359.873 33.263 356.062 31.028C352.251 28.793 347.349 30.071 345.114 33.882C345.096 33.913 345.078 33.944 345.06 33.975L321.06 75.575C318.85 79.402 320.161 84.295 323.988 86.504Z" fill="#04C0B2"/>
<path d="M239.988 112C173.745 112.075 120.063 165.757 119.988 232C119.988 236.418 123.57 240 127.988 240C132.406 240 135.988 236.418 135.988 232C136.054 174.59 182.578 128.066 239.988 128C244.406 128 247.988 124.418 247.988 120C247.988 115.582 244.406 112 239.988 112Z" fill="#04C0B2"/>
<path d="M386.388 272.752V272.712C386.644 271.912 386.876 271.048 387.076 270.264C387.364 269.16 387.604 268.048 387.876 266.936C388.148 265.824 388.404 264.712 388.556 263.824C406.293 181.772 354.156 100.877 272.104 83.139C190.052 65.401 109.157 117.539 91.419 199.591C89.117 210.24 87.967 221.105 87.988 232C87.988 235.56 88.14 239.096 88.388 242.608C88.516 244.552 88.708 246.528 88.948 248.6C89.396 252.68 89.972 256.728 90.748 260.736C90.812 261.064 90.836 261.4 90.924 261.728C91.276 263.56 91.724 265.336 92.148 267.112C92.396 268.144 92.636 269.176 92.9 270.2C93.02 270.632 93.084 271 93.22 271.496C93.54 272.688 93.916 273.816 94.268 274.984C94.644 276.28 95.004 277.576 95.42 278.856L95.468 279.008C96.188 281.336 97.004 283.6 97.988 286.12C98.172 286.608 98.364 287.088 98.556 287.568C98.732 288.164 98.963 288.742 99.244 289.296L99.284 289.392C99.82 290.816 100.444 292.232 101.068 293.56L101.172 293.76C101.572 294.664 101.972 295.56 102.404 296.464C102.604 296.912 102.796 297.408 102.996 297.816C105.139 302.332 107.527 306.728 110.148 310.984L110.892 312.168C111.372 312.968 111.86 313.768 112.348 314.448L113.332 315.912C113.812 316.616 114.308 317.328 114.796 318.032C115.148 318.544 115.476 319.056 115.836 319.56C116.012 319.848 116.18 320.128 116.404 320.432C116.572 320.656 116.756 320.88 116.932 321.104C117.244 321.536 117.564 321.904 117.876 322.328C119.188 324.104 120.516 325.864 121.876 327.584L121.972 327.712C122.228 328.016 122.492 328.304 122.772 328.608C124.372 330.544 125.972 332.464 127.692 334.328H127.732C129.156 335.928 130.668 337.432 132.172 338.952C132.652 339.424 133.092 339.928 133.572 340.4C133.78 340.6 133.964 340.824 134.172 341.024C136.332 343.104 138.572 345.096 140.788 347.064C144.988 350.746 149.418 354.155 154.052 357.272C154.882 358.209 155.921 358.938 157.084 359.4L160.212 382.696C160.099 383.123 160.024 383.56 159.988 384C160.01 385.23 160.319 386.439 160.892 387.528L166.78 431.304C166.877 432.058 167.084 432.794 167.396 433.488C169.089 437.315 171.129 440.978 173.492 444.432V444.488L173.556 444.56C198.14 481.218 247.787 491.007 284.445 466.423C293.086 460.628 300.513 453.201 306.308 444.56L306.372 444.488L306.412 444.432C308.775 440.978 310.815 437.315 312.508 433.488C312.82 432.794 313.027 432.058 313.124 431.304L322.796 359.392C323.356 359.205 323.892 358.955 324.396 358.648C354.582 338.42 376.529 308.055 386.268 273.048C386.34 272.952 386.388 272.856 386.388 272.752ZM197.732 448H282.244C258.112 469.333 221.863 469.333 197.732 448ZM297.492 428C296.86 429.36 296.164 430.696 295.42 432H184.555C183.811 430.704 183.115 429.368 182.483 428L177.643 392H302.331L297.492 428ZM304.468 376.096C304.3 376.088 304.156 376 303.988 376H175.492L173.34 360H306.636L304.468 376.096ZM223.988 344V269.088L235.26 277.208C238.053 279.22 241.819 279.22 244.612 277.208L255.988 269.016V344H223.988ZM375.684 240.8C375.532 243.264 375.308 245.648 375.012 248.048V248.232C374.914 248.669 374.847 249.113 374.812 249.56V249.72C374.764 249.96 374.732 250.2 374.7 250.456C374.668 250.712 374.652 250.856 374.628 251.072C374.628 251.304 374.564 251.528 374.532 251.76C374.356 253 374.172 254.232 373.956 255.464C373.852 256.024 373.772 256.544 373.636 257.176C373.508 258.024 373.308 258.936 373.012 260.296V260.44C372.812 261.4 372.604 262.36 372.38 263.312C372.3 263.632 372.244 263.904 372.148 264.264C371.879 265.579 371.542 266.879 371.14 268.16C370.988 268.728 370.82 269.296 370.66 269.864C370.268 271.312 369.86 272.728 369.316 274.272C368.66 276.32 368.012 278.368 367.212 280.328L366.9 281.128C366.526 282.168 366.099 283.188 365.62 284.184C365.445 284.529 365.298 284.888 365.18 285.256L365.02 285.616C364.308 287.408 363.516 289.12 362.492 291.216C361.916 292.512 361.276 293.736 360.636 294.96L359.668 296.872C349.403 315.791 334.781 331.995 317.012 344.144C316.596 344.06 316.173 344.012 315.748 344H271.988V276.752L272.628 277.208C275.417 279.212 279.175 279.212 281.964 277.208L300.652 263.784C304.311 261.307 305.27 256.334 302.793 252.675C300.316 249.016 295.343 248.057 291.684 250.534C291.562 250.617 291.442 250.703 291.324 250.792L277.292 260.864L263.268 250.792C260.477 248.784 256.715 248.784 253.924 250.792L239.94 260.856L225.956 250.792C223.163 248.78 219.397 248.78 216.604 250.792L202.628 260.856L188.668 250.792C185.083 248.207 180.081 249.019 177.496 252.604C174.911 256.189 175.723 261.191 179.308 263.776L197.948 277.208C200.741 279.22 204.507 279.22 207.3 277.208L207.988 276.712V344H164.228C163.888 344.004 163.549 344.028 163.212 344.072C154.574 338.158 146.642 331.273 139.572 323.552C138.044 321.888 136.564 320.128 135.076 318.328C134.804 318 134.508 317.68 134.236 317.344C132.884 315.744 131.644 314.048 130.412 312.336C129.94 311.696 129.436 311.08 128.98 310.432V310.384C128.916 310.288 128.86 310.2 128.796 310.12L128.532 309.728C128.324 309.456 128.156 309.176 127.956 308.928C126.092 306.224 124.356 303.44 122.692 300.616C121.092 297.928 119.644 295.232 118.3 292.488C117.764 291.424 117.212 290.368 116.7 289.288C116.548 288.912 116.364 288.488 116.268 288.256L115.876 287.456L115.78 287.264V287.224C113.827 282.869 112.11 278.412 110.636 273.872C110.492 273.44 110.356 272.984 110.212 272.544C109.484 270.216 108.804 267.864 108.196 265.48C108.196 265.352 108.124 265.232 108.1 265.104C108.052 264.784 107.988 264.466 107.908 264.152C107.764 263.608 107.66 263.04 107.532 262.496C107.148 260.832 106.732 259.176 106.428 257.496C106.428 257.312 106.388 257.128 106.356 256.944C105.932 254.76 105.556 252.496 105.284 250.232C105.278 249.735 105.214 249.241 105.092 248.76C105.092 248.592 105.036 248.32 104.988 248.04C104.692 245.64 104.476 243.304 104.316 240.72C104.06 237.816 103.988 234.904 103.988 232C104.072 156.924 164.912 96.084 239.988 96C315.064 96.084 375.904 156.924 375.988 232C375.988 234.904 375.916 237.816 375.684 240.8Z" fill="#04C0B2"/>
</g>
<defs>
<clipPath id="clip0">
<rect width="479.975" height="479.975" fill="white"/>
</clipPath>
</defs>
</svg>
