<svg width="100" height="100" viewBox="0 0 100 100" fill="none" xmlns="http://www.w3.org/2000/svg">
<path d="M44.464 24.4112V55.536H70.4754V44.42H55.58V24.4112H44.464ZM85.3709 14.6291C75.9917 5.26162 63.2779 0 50.022 0C36.7661 0 24.0523 5.26162 14.6731 14.6291L11.116 18.353L0 7.23696V38.862H31.4583L18.786 26.1897L22.5099 22.4659C28.7266 16.3121 36.8357 12.4328 45.5282 11.4542C54.2207 10.4757 62.9893 12.455 70.4185 17.0727C77.8478 21.6904 83.5042 28.6769 86.4746 36.9045C89.445 45.1321 89.556 54.1207 86.7899 62.4192C84.0237 70.7177 78.5417 77.8419 71.2288 82.6417C63.9159 87.4416 55.1989 89.637 46.4849 88.8736C37.7709 88.1102 29.5684 84.4325 23.2015 78.4341C16.8347 72.4358 12.675 64.4669 11.3939 55.8139H0.2779C1.70905 67.9972 7.56713 79.2298 16.7385 87.3764C25.9098 95.5231 37.7549 100.016 50.022 100C59.909 99.9913 69.5717 97.0528 77.7897 91.5557C86.0077 86.0587 92.4123 78.2495 96.1947 69.1146C99.9772 59.9797 100.968 49.9288 99.0412 40.2313C97.1148 30.5338 92.3577 21.6246 85.3709 14.6291V14.6291Z" fill="#04C0B2"/>
</svg>
