<svg width="101" height="81" viewBox="0 0 101 81" fill="none" xmlns="http://www.w3.org/2000/svg">
<path d="M51.5231 18.5512C51.5231 18.5512 40.96 0.184784 51.5231 0.184784C62.0861 0.185037 51.5231 18.5512 51.5231 18.5512Z" fill="#04BAAC"/>
<path d="M71.9239 26.5467C71.9239 26.5467 78.5713 6.68849 86.0397 13.5628C93.5062 20.4326 71.9239 26.5467 71.9239 26.5467Z" fill="#04BAAC"/>
<path d="M80.2048 45.4771C80.2048 45.4771 100.169 35.7564 100.166 45.4771C100.162 55.193 80.2048 45.4771 80.2048 45.4771Z" fill="#04BAAC"/>
<path d="M22.2565 44.9374C22.2565 44.9374 2.29904 54.6622 2.29904 44.9374C2.30538 35.2246 22.2565 44.9374 22.2565 44.9374Z" fill="#04BAAC"/>
<path d="M30.9528 26.1662C30.9528 26.1662 9.36852 20.0577 16.8411 13.1803C24.3032 6.31589 30.9528 26.1662 30.9528 26.1662Z" fill="#04BAAC"/>
<path d="M99.7822 59.1137C99.7822 62.0234 97.22 64.3809 94.0575 64.3809H5.89107C2.72743 64.3809 0.166321 62.0234 0.166321 59.1137C0.166321 56.2059 2.72743 53.8465 5.89107 53.8465H94.0578C97.2203 53.8462 99.7822 56.2059 99.7822 59.1137Z" fill="#04BAAC"/>
<path d="M99.7822 74.9156C99.7822 77.8236 97.22 80.1848 94.0575 80.1848H5.89107C2.72743 80.1848 0.166321 77.8236 0.166321 74.9156C0.166321 72.0078 2.72743 69.6483 5.89107 69.6483H94.0578C97.2203 69.6481 99.7822 72.0078 99.7822 74.9156Z" fill="#04BAAC"/>
<path d="M33.2681 44.6984C33.2681 35.6352 41.254 28.2866 51.1055 28.2866C60.9579 28.2866 68.9459 35.6352 68.9459 44.6984C68.9459 47.2305 68.2715 49.5996 67.1579 51.7387H74.1048C74.9065 49.5227 75.3583 47.1623 75.3583 44.6984C75.3583 32.3781 64.4982 22.388 51.1058 22.388C37.7151 22.388 26.8552 32.3781 26.8552 44.6984C26.8552 47.1623 27.3059 49.5227 28.1087 51.7387H35.0531C33.9448 49.5996 33.2681 47.2305 33.2681 44.6984Z" fill="#04BAAC"/>
</svg>
