<svg width="101" height="81" viewBox="0 0 101 81" fill="none" xmlns="http://www.w3.org/2000/svg">
<path d="M31.924 30.4662H24.8401V37.5404H31.924V30.4662ZM30.6185 35.1419C30.9201 35.4448 30.9192 35.9344 30.6166 36.2361C30.4656 36.3866 30.268 36.4616 30.0706 36.4616C29.8722 36.4616 29.6739 36.3858 29.5227 36.2342L28.3821 35.0896L27.2417 36.2342C27.0905 36.3861 26.8924 36.4616 26.6938 36.4616C26.4961 36.4616 26.2985 36.3866 26.1478 36.2361C25.8451 35.9346 25.8444 35.4448 26.1459 35.1419L27.2903 33.9935L26.1459 32.8451C25.8444 32.5423 25.8451 32.0526 26.1478 31.751C26.4504 31.4495 26.9402 31.4502 27.2417 31.7529L28.3821 32.8975L29.5227 31.7529C29.8243 31.45 30.314 31.4493 30.6166 31.751C30.9192 32.0524 30.9201 32.5423 30.6185 32.8451L29.4741 33.9935L30.6185 35.1419Z" fill="#04C0B2"/>
<path d="M89.9159 62.3844H82.8326V69.4786H89.9159V62.3844ZM88.6107 67.0794C88.9119 67.3818 88.9114 67.8715 88.609 68.1734C88.4578 68.3241 88.2604 68.3991 88.0628 68.3991C87.8644 68.3991 87.6658 68.3236 87.5151 68.172L86.3733 67.0271L85.2318 68.172C85.0806 68.3236 84.8824 68.3991 84.6841 68.3991C84.4864 68.3991 84.2888 68.3241 84.1378 68.1734C83.8355 67.8717 83.8348 67.3821 84.1364 67.0794L85.281 65.9315L84.1364 64.7843C83.8348 64.4817 83.8355 63.9916 84.1378 63.6899C84.4407 63.3885 84.9303 63.389 85.232 63.6916L86.3735 64.836L87.5153 63.6916C87.817 63.389 88.3066 63.3885 88.6095 63.6899C88.9119 63.9913 88.9123 64.4815 88.6111 64.7843L87.4663 65.9315L88.6107 67.0794Z" fill="#04C0B2"/>
<path d="M89.9159 46.4257H82.8326V53.4993H89.9159V46.4257Z" fill="#04C0B2"/>
<path d="M31.9239 50.0558L29.4694 51.7608C29.3352 51.8542 29.1811 51.8993 29.0285 51.8993C28.796 51.8993 28.5665 51.7946 28.4144 51.5969L26.5504 49.1709C26.29 48.8317 26.3537 48.3463 26.6926 48.0859C27.0318 47.8255 27.5171 47.8894 27.7771 48.2279L29.192 50.0697L31.9237 48.172V46.4257H24.8399V53.4993H31.9237V50.0558H31.9239Z" fill="#04C0B2"/>
<path d="M46.4196 62.3844H39.3361V69.4786H46.4196V62.3844Z" fill="#04C0B2"/>
<path d="M46.4196 30.4662H39.3361V37.5404H46.4196V30.4662Z" fill="#04C0B2"/>
<path d="M60.9243 46.4257H53.8318V53.4993H60.9243V46.4257Z" fill="#04C0B2"/>
<path d="M60.9243 30.4662H53.8318V37.5404H60.9243V30.4662Z" fill="#04C0B2"/>
<path d="M75.42 62.3844H68.3258V69.4786H75.42V62.3844Z" fill="#04C0B2"/>
<path d="M46.4196 46.4257H39.3361V53.4993H46.4196V46.4257V46.4257ZM45.1144 51.1205C45.4158 51.4228 45.4151 51.9127 45.1125 52.2144C44.9615 52.3651 44.7639 52.4401 44.5665 52.4401C44.3681 52.4401 44.1698 52.3644 44.0186 52.2127L42.8777 51.0686L41.7371 52.2127C41.5859 52.3644 41.3878 52.4401 41.1892 52.4401C40.9918 52.4401 40.7941 52.3651 40.6432 52.2144C40.3406 51.913 40.3399 51.4231 40.6413 51.1205L41.7857 49.9728L40.6413 48.8253C40.3399 48.5227 40.3406 48.0328 40.6432 47.7312C40.9456 47.4295 41.4352 47.4304 41.7371 47.7328L42.8777 48.877L44.0186 47.7328C44.32 47.4304 44.8099 47.4295 45.1125 47.7312C45.4151 48.0326 45.4158 48.5225 45.1144 48.8253L43.97 49.9728L45.1144 51.1205Z" fill="#04C0B2"/>
<path d="M75.42 30.4662H68.3258V37.5404H75.42V30.4662Z" fill="#04C0B2"/>
<path d="M89.9159 30.4662H82.8326V37.5404H89.9159V30.4662Z" fill="#04C0B2"/>
<path d="M81.2641 7.35813C81.2641 7.21449 81.3061 7.08123 81.3743 6.9659V0.212997H75.2228V11.8581H81.2641V7.35813V7.35813Z" fill="#04C0B2"/>
<path d="M17.4283 62.3844H10.3445V69.4786H17.4283V62.3844Z" fill="#04C0B2"/>
<path d="M31.924 62.3844H24.8401V69.4786H31.924V62.3844Z" fill="#04C0B2"/>
<path d="M75.42 49.6348L72.3166 51.8002C72.1821 51.8941 72.0272 51.9394 71.8746 51.9394C71.6413 51.9394 71.4113 51.8347 71.2594 51.6358L69.4046 49.2095C69.145 48.8701 69.2096 48.3845 69.549 48.1251C69.8889 47.8654 70.374 47.9302 70.6335 48.2694L72.0387 50.1077L75.4202 47.7484V46.4257H68.326V53.4993H75.4202V49.6348H75.42Z" fill="#04C0B2"/>
<path d="M2.54409 21.5413H100.01V14.5162C100.01 10.9958 97.1509 8.13175 93.6368 8.13175H82.9213V12.6317C82.9213 12.7963 82.8687 12.9485 82.7807 13.074C82.6918 13.4027 82.3939 13.6457 82.0373 13.6457H74.3294C73.9022 13.6457 73.556 13.2994 73.556 12.8721V8.13175H26.585V12.6317C26.585 12.8065 26.5251 12.9659 26.4272 13.0957C26.3308 13.4131 26.0392 13.6459 25.6902 13.6459H17.9915C17.5641 13.6459 17.2181 13.2997 17.2181 12.8723V8.13199H6.3827C2.86886 8.13199 0.0100098 10.996 0.0100098 14.5165V73.9213C0.0100098 77.4415 2.86886 80.3053 6.3827 80.3053H93.6371C97.1509 80.3053 100.01 77.4412 100.01 73.9213V23.0883H2.54409C2.11671 23.0883 1.77047 22.7421 1.77047 22.3147C1.77047 21.8876 2.11671 21.5413 2.54409 21.5413ZM81.2853 29.6929C81.2853 29.2657 81.6318 28.9192 82.059 28.9192H90.6898C91.1169 28.9192 91.4632 29.2657 91.4632 29.6929V38.314C91.4632 38.7411 91.1167 39.0876 90.6898 39.0876H82.059C81.6316 39.0876 81.2853 38.7411 81.2853 38.314V29.6929ZM81.2853 45.6518C81.2853 45.2247 81.6318 44.8784 82.059 44.8784H90.6898C91.1169 44.8784 91.4632 45.2249 91.4632 45.6518V54.273C91.4632 54.7003 91.1167 55.0464 90.6898 55.0464H82.059C81.6316 55.0464 81.2853 54.7001 81.2853 54.273V45.6518ZM81.2853 61.6106C81.2853 61.1834 81.6318 60.8372 82.059 60.8372H90.6898C91.1169 60.8372 91.4632 61.1837 91.4632 61.6106V70.2522C91.4632 70.6796 91.1167 71.0256 90.6898 71.0256H82.059C81.6316 71.0256 81.2853 70.6794 81.2853 70.2522V61.6106ZM66.7788 29.6929C66.7788 29.2657 67.1253 28.9192 67.5524 28.9192H76.1939C76.6212 28.9192 76.9675 29.2657 76.9675 29.6929V38.314C76.9675 38.7411 76.621 39.0876 76.1939 39.0876H67.5524C67.125 39.0876 66.7788 38.7411 66.7788 38.314V29.6929ZM66.7788 45.6518C66.7788 45.2247 67.1253 44.8784 67.5524 44.8784H76.1939C76.6212 44.8784 76.9675 45.2249 76.9675 45.6518V46.6689L78.5579 45.5591C78.9084 45.3153 79.3905 45.4006 79.6348 45.7509C79.8794 46.1011 79.7935 46.5837 79.443 46.8278L76.9672 48.5553V54.2727C76.9672 54.7001 76.6208 55.0461 76.1936 55.0461H67.5522C67.1248 55.0461 66.7786 54.6999 66.7786 54.2727V45.6518H66.7788ZM66.7788 61.6106C66.7788 61.1834 67.1253 60.8372 67.5524 60.8372H76.1939C76.6212 60.8372 76.9675 61.1837 76.9675 61.6106V70.2522C76.9675 70.6796 76.621 71.0256 76.1939 71.0256H67.5524C67.125 71.0256 66.7788 70.6794 66.7788 70.2522V61.6106ZM52.2848 29.6929C52.2848 29.2657 52.6312 28.9192 53.0581 28.9192H61.6979C62.1255 28.9192 62.4715 29.2657 62.4715 29.6929V38.314C62.4715 38.7411 62.1253 39.0876 61.6979 39.0876H53.0581C52.631 39.0876 52.2848 38.7411 52.2848 38.314V29.6929ZM52.2848 45.6518C52.2848 45.2247 52.6312 44.8784 53.0581 44.8784H61.6979C62.1255 44.8784 62.4715 45.2249 62.4715 45.6518V54.273C62.4715 54.7003 62.1253 55.0464 61.6979 55.0464H53.0581C52.631 55.0464 52.2848 54.7001 52.2848 54.273V45.6518ZM52.2848 61.6106C52.2848 61.1834 52.6312 60.8372 53.0581 60.8372H61.6979C62.1255 60.8372 62.4715 61.1837 62.4715 61.6106V63.2977L64.9943 61.5377C65.3445 61.2933 65.8271 61.379 66.0712 61.7294C66.3156 62.0797 66.2297 62.5618 65.8795 62.8064L62.4715 65.1838V70.2518C62.4715 70.6791 62.1253 71.0251 61.6979 71.0251H53.0581C52.631 71.0251 52.2848 70.6789 52.2848 70.2518V61.6106ZM37.7888 29.6929C37.7888 29.2657 38.1353 28.9192 38.5624 28.9192H47.1935C47.6206 28.9192 47.9671 29.2657 47.9671 29.6929V38.314C47.9671 38.7411 47.6206 39.0876 47.1935 39.0876H38.5624C38.1353 39.0876 37.7888 38.7411 37.7888 38.314V29.6929ZM37.7888 45.6518C37.7888 45.2247 38.1353 44.8784 38.5624 44.8784H47.1935C47.6206 44.8784 47.9671 45.2249 47.9671 45.6518V54.273C47.9671 54.7003 47.6206 55.0464 47.1935 55.0464H38.5624C38.1353 55.0464 37.7888 54.7001 37.7888 54.273V45.6518ZM37.7888 61.6106C37.7888 61.1834 38.1353 60.8372 38.5624 60.8372H47.1935C47.6206 60.8372 47.9671 61.1837 47.9671 61.6106V70.2522C47.9671 70.6796 47.6206 71.0256 47.1935 71.0256H38.5624C38.1353 71.0256 37.7888 70.6794 37.7888 70.2522V61.6106ZM23.2931 29.6929C23.2931 29.2657 23.6394 28.9192 24.0667 28.9192H32.6976C33.1249 28.9192 33.4712 29.2657 33.4712 29.6929V38.314C33.4712 38.7411 33.1249 39.0876 32.6976 39.0876H24.0667C23.6391 39.0876 23.2931 38.7411 23.2931 38.314V29.6929V29.6929ZM23.2931 45.6518C23.2931 45.2247 23.6394 44.8784 24.0667 44.8784H32.6976C33.1249 44.8784 33.4712 45.2249 33.4712 45.6518V47.0969L35.7152 45.5379C36.0659 45.2945 36.548 45.3808 36.7918 45.7318C37.0355 46.0825 36.9489 46.5646 36.598 46.8085L33.4712 48.9808V54.273C33.4712 54.7003 33.1249 55.0464 32.6976 55.0464H24.0667C23.6391 55.0464 23.2931 54.7001 23.2931 54.273V45.6518V45.6518ZM23.2931 61.6106C23.2931 61.1834 23.6394 60.8372 24.0667 60.8372H32.6976C33.1249 60.8372 33.4712 61.1837 33.4712 61.6106V70.2522C33.4712 70.6796 33.1249 71.0256 32.6976 71.0256H24.0667C23.6391 71.0256 23.2931 70.6794 23.2931 70.2522V61.6106V61.6106ZM8.79743 29.6929C8.79743 29.2657 9.14391 28.9192 9.57082 28.9192H18.2019C18.629 28.9192 18.9755 29.2657 18.9755 29.6929V31.2512L20.7675 30.0014C21.1178 29.757 21.6001 29.8426 21.8447 30.1931C22.0891 30.5434 22.003 31.0259 21.6527 31.2701L18.9755 33.1374V38.314C18.9755 38.7411 18.629 39.0876 18.2019 39.0876H9.57082C9.14367 39.0876 8.79743 38.7411 8.79743 38.314V29.6929V29.6929ZM8.79743 45.6518C8.79743 45.2247 9.14391 44.8784 9.57082 44.8784H18.2019C18.629 44.8784 18.9755 45.2249 18.9755 45.6518V54.273C18.9755 54.7003 18.629 55.0464 18.2019 55.0464H9.57082C9.14367 55.0464 8.79743 54.7001 8.79743 54.273V45.6518V45.6518ZM8.79743 61.6106C8.79743 61.1834 9.14391 60.8372 9.57082 60.8372H18.2019C18.629 60.8372 18.9755 61.1837 18.9755 61.6106V70.2522C18.9755 70.6796 18.629 71.0256 18.2019 71.0256H9.57082C9.14367 71.0256 8.79743 70.6794 8.79743 70.2522V61.6106V61.6106Z" fill="#04C0B2"/>
<path d="M60.9243 66.2638L58.7527 67.779C58.6183 67.8726 58.4636 67.9182 58.3107 67.9182C58.0784 67.9182 57.8485 67.8139 57.6968 67.616L55.8326 65.1904C55.5722 64.8515 55.6359 64.3659 55.9746 64.1055C56.3135 63.8453 56.7991 63.9088 57.0595 64.2477L58.4732 66.0877L60.9245 64.3774V62.3847H53.832V69.4788H60.9245V66.2638H60.9243Z" fill="#04C0B2"/>
<path d="M17.4283 34.2166L14.5241 36.242C14.3897 36.3358 14.235 36.3809 14.0819 36.3809C13.8496 36.3809 13.6201 36.2764 13.4679 36.0788L11.6037 33.6527C11.3433 33.3138 11.407 32.8281 11.7459 32.568C12.0849 32.3078 12.5703 32.3713 12.8304 32.7102L14.2446 34.5504L17.428 32.33V30.4662H10.3445V37.5404H17.4283V34.2166V34.2166Z" fill="#04C0B2"/>
<path d="M24.9163 7.35813C24.9163 7.20577 24.9619 7.06519 25.0378 6.94561V0.212997H18.8861V11.8581H24.9163V7.35813Z" fill="#04C0B2"/>
<path d="M17.4283 46.4257H10.3445V53.4993H17.4283V46.4257Z" fill="#04C0B2"/>
</svg>
