<svg width="40" height="40" viewBox="0 0 40 40" fill="none" xmlns="http://www.w3.org/2000/svg">
<path d="M39.9976 19.9716C39.9902 14.6404 37.9109 9.62918 34.1404 5.85856C30.363 2.08121 25.3409 0.000976562 19.999 0.000976562C14.657 0.000976562 9.63492 2.08121 5.85758 5.85856C2.08023 9.6359 0 14.6581 0 20C0 25.3418 2.08023 30.3641 5.85758 34.1414C9.63086 37.9147 14.6464 39.9943 19.982 39.9987C19.9834 39.9987 19.9847 39.9989 19.9861 39.9989C19.987 39.9989 19.9877 39.9988 19.9886 39.9988C19.9921 39.9988 19.9955 39.9989 19.999 39.9989C25.3409 39.9989 30.363 37.9187 34.1404 34.1414C37.899 30.3828 39.9765 25.3914 39.997 20.0791C39.998 20.0591 40 20.0394 40 20.0193C40 20.0032 39.9982 19.9875 39.9976 19.9716ZM36.4529 21.1915H37.6128C37.3302 25.4586 35.5344 29.4314 32.4824 32.4834C29.4228 35.5431 25.4377 37.3402 21.1584 37.6157V36.4518C21.1584 35.8044 20.6335 35.2795 19.9861 35.2795C19.3387 35.2795 18.8137 35.8044 18.8137 36.4518V37.6142C14.5443 37.333 10.5691 35.5369 7.51555 32.4834C4.46055 29.4284 2.66414 25.4507 2.38438 21.1787H3.54922C4.19664 21.1787 4.72156 20.6538 4.72156 20.0064C4.72156 19.3589 4.19664 18.834 3.54922 18.834H2.38359C2.66063 14.5572 4.45742 10.5746 7.51555 7.5166C10.5721 4.46004 14.5523 2.6634 18.8266 2.38504V3.54816C18.8266 4.19559 19.3516 4.72051 19.999 4.72051C20.6464 4.72051 21.1713 4.19559 21.1713 3.54816V2.38496C25.4457 2.66332 29.4259 4.45996 32.4824 7.51652C35.5436 10.5776 37.3409 14.5652 37.6152 18.8468H36.4529C35.8055 18.8468 35.2805 19.3718 35.2805 20.0192C35.2805 20.6667 35.8055 21.1915 36.4529 21.1915Z" fill="#04BAAC"/>
<path d="M32.7051 18.9314C32.0576 18.9314 31.5327 19.4563 31.5327 20.1037C31.5327 26.4623 26.3597 31.6354 20.001 31.6354C13.6423 31.6354 8.46928 26.4624 8.46928 20.1037C8.46928 13.745 13.6423 8.57198 20.001 8.57198C20.6484 8.57198 21.1733 8.04706 21.1733 7.39964C21.1733 6.75222 20.6484 6.22729 20.001 6.22729C12.3495 6.22729 6.12451 12.4522 6.12451 20.1038C6.12451 27.7553 12.3494 33.9803 20.001 33.9803C27.6526 33.9803 33.8775 27.7553 33.8775 20.1038C33.8775 19.4563 33.3526 18.9314 32.7051 18.9314Z" fill="#B3B3B3"/>
<path d="M19.9862 16.5218C19.7068 16.5218 19.4352 16.5556 19.1747 16.6179L16.2211 11.9709C15.8738 11.4245 15.1492 11.263 14.6027 11.6104C14.0563 11.9577 13.8948 12.6822 14.2422 13.2287L17.2091 17.8966C16.7578 18.4857 16.4887 19.2215 16.4887 20.0192C16.4887 21.9476 18.0576 23.5166 19.9862 23.5166C21.9146 23.5166 23.4835 21.9477 23.4835 20.0192C23.4835 18.0907 21.9146 16.5218 19.9862 16.5218ZM19.9861 21.1718C19.3505 21.1718 18.8334 20.6547 18.8334 20.0191C18.8334 19.3836 19.3505 18.8665 19.9861 18.8665C20.6217 18.8665 21.1387 19.3836 21.1387 20.0191C21.1387 20.6547 20.6216 21.1718 19.9861 21.1718Z" fill="#04BAAC"/>
</svg>
